<?xml version="1.0" standalone="no"?>
<!DOCTYPE svg PUBLIC "-//W3C//DTD SVG 20010904//EN"
 "http://www.w3.org/TR/2001/REC-SVG-20010904/DTD/svg10.dtd">
<svg version="1.0" xmlns="http://www.w3.org/2000/svg"
 width="320.000000pt" height="288.000000pt" viewBox="0 0 320.000000 288.000000"
 preserveAspectRatio="xMidYMid meet">

<g transform="translate(0.000000,288.000000) scale(0.100000,-0.100000)"
fill="#000000" stroke="none">
<path d="M0 1440 l0 -1440 1600 0 1600 0 0 1440 0 1440 -1600 0 -1600 0 0
-1440z m1493 1108 l21 -28 -21 -27 c-25 -34 -47 -39 -78 -19 -33 22 -34 69 -2
91 30 21 56 16 80 -17z m326 -38 c230 -29 462 -147 623 -318 159 -169 256
-381 280 -614 20 -189 -19 -412 -99 -573 -127 -254 -354 -448 -624 -534 -88
-27 -222 -51 -291 -51 l-28 0 0 1050 0 1050 28 0 c15 0 65 -5 111 -10z m-769
-249 c14 -10 31 -36 39 -58 13 -36 12 -43 -5 -79 -27 -55 -81 -81 -134 -65
-72 21 -105 93 -73 159 33 68 112 88 173 43z m443 15 c94 -39 88 -184 -8 -216
-49 -16 -89 -4 -125 36 -40 46 -41 99 -3 144 42 50 80 60 136 36z m7 -406 c41
-11 94 -61 109 -103 43 -112 -40 -236 -157 -237 -190 -1 -250 253 -78 331 47
21 76 23 126 9z m-446 -80 c40 -36 52 -76 36 -125 -15 -46 -57 -75 -110 -75
-76 0 -131 67 -115 140 10 45 67 90 115 90 30 0 48 -8 74 -30z m-378 -55 c20
-31 15 -53 -18 -78 l-28 -21 -27 21 c-34 25 -39 47 -19 78 22 34 70 34 92 0z
m859 -348 c73 -41 105 -140 71 -220 -32 -78 -131 -124 -211 -97 -119 39 -162
185 -82 277 58 66 147 82 222 40z m-485 -57 c34 -24 54 -78 45 -120 -10 -45
-67 -90 -115 -90 -48 0 -105 45 -115 90 -9 41 11 95 43 119 36 27 105 28 142
1z m-386 -51 c30 -23 33 -45 10 -77 -30 -44 -104 -16 -104 39 0 16 44 59 60
59 4 0 19 -9 34 -21z m386 -418 c14 -10 31 -36 39 -58 13 -36 12 -43 -5 -79
-27 -55 -81 -81 -134 -65 -72 21 -105 93 -73 159 33 68 112 88 173 43z m443
15 c94 -39 88 -184 -8 -216 -49 -16 -89 -4 -125 36 -40 46 -41 99 -3 144 42
50 80 60 136 36z m0 -428 l21 -28 -21 -27 c-25 -34 -47 -39 -78 -19 -33 22
-34 69 -2 91 30 21 56 16 80 -17z"/>
</g>
</svg>
